<?xml version="1.0" standalone="no"?>
<!DOCTYPE svg PUBLIC "-//W3C//DTD SVG 20010904//EN"
 "http://www.w3.org/TR/2001/REC-SVG-20010904/DTD/svg10.dtd">
<svg version="1.0" xmlns="http://www.w3.org/2000/svg"
 width="505.000000pt" height="494.000000pt" viewBox="0 0 505.000000 494.000000"
 preserveAspectRatio="xMidYMid meet">

<g transform="translate(0.000000,494.000000) scale(0.100000,-0.100000)"
fill="#000000" stroke="none">
<path d="M2330 4930 c-1206 -93 -2174 -1008 -2311 -2185 -18 -152 -16 -432 5
-585 72 -540 308 -1012 700 -1406 597 -597 1438 -854 2281 -699 766 142 1442
646 1790 1335 214 424 299 955 230 1430 -50 344 -188 704 -383 995 -507 758
-1393 1185 -2312 1115z m560 -74 c300 -48 520 -119 781 -252 623 -317 1080
-885 1249 -1554 54 -212 65 -311 65 -585 -1 -281 -16 -403 -81 -628 -114 -397
-301 -720 -589 -1016 -402 -414 -913 -667 -1484 -737 -192 -23 -546 -15 -720
16 -545 97 -1020 348 -1389 734 -351 369 -557 797 -644 1341 -16 104 -16 494
0 600 97 618 367 1116 815 1501 384 330 871 540 1382 594 119 13 504 4 615
-14z"/>
<path d="M2455 4754 c-9 -9 -15 -28 -13 -43 l3 -26 -100 -6 c-55 -4 -128 -10
-162 -14 -52 -6 -63 -4 -63 8 0 20 -71 47 -125 47 -60 0 -90 -28 -81 -76 6
-29 4 -34 -17 -39 -18 -5 -32 0 -52 19 -31 29 -95 50 -108 37 -13 -13 1 -31
24 -31 28 0 81 -29 74 -40 -4 -6 -12 -10 -20 -10 -8 0 -69 -20 -136 -45 l-123
-45 -21 20 c-29 27 -94 45 -108 31 -7 -7 -2 -13 17 -21 15 -5 31 -10 35 -10 4
0 16 -7 27 -15 18 -14 17 -14 -9 -5 -40 14 -103 12 -116 -3 -17 -21 -4 -26 55
-20 30 3 54 2 54 -3 0 -5 -38 -29 -85 -52 -79 -39 -100 -62 -56 -62 10 0 27
-17 40 -40 13 -24 32 -42 47 -46 25 -6 31 -18 14 -29 -5 -3 -10 -10 -10 -16 0
-11 40 -13 40 -1 0 4 9 18 20 32 14 18 22 21 28 13 5 -8 13 -9 22 -3 12 8 8
21 -23 78 -20 38 -37 72 -37 75 0 2 11 12 25 21 l24 16 35 -75 c22 -47 41 -75
50 -75 22 0 20 7 -14 83 -17 37 -30 71 -30 75 0 10 77 42 100 42 9 0 4 -9 -14
-23 -22 -18 -27 -28 -22 -45 4 -12 12 -22 17 -22 5 0 9 -8 9 -18 0 -43 48 -54
103 -25 18 9 43 16 56 14 20 -2 23 0 16 16 -31 77 -55 146 -52 149 2 2 17 7
34 10 27 5 31 3 37 -23 23 -92 39 -133 52 -133 19 0 18 17 -5 101 l-20 70 25
9 c14 6 27 10 29 10 2 0 11 -34 21 -76 16 -68 34 -97 50 -81 4 3 -2 40 -12 81
-10 42 -15 79 -11 82 3 4 26 10 49 15 37 7 45 5 61 -13 21 -25 23 -76 2 -84
-24 -9 -36 5 -23 26 14 22 6 35 -17 26 -22 -8 -29 -34 -17 -62 17 -35 75 -34
98 1 17 25 14 49 -12 113 -4 8 3 12 19 12 23 0 25 -5 37 -80 10 -67 15 -80 31
-80 11 0 19 2 19 4 0 2 -7 39 -15 82 -8 43 -13 79 -12 81 2 2 38 6 80 9 76 7
77 7 77 -17 0 -18 -3 -20 -9 -10 -6 9 -17 11 -32 7 -36 -9 -47 -19 -54 -48 -9
-36 23 -68 70 -68 25 0 35 -4 35 -16 0 -9 7 -14 17 -12 14 3 18 14 18 58 0 52
1 55 26 58 18 2 29 -3 33 -14 7 -19 -10 -44 -30 -44 -8 0 -14 -7 -14 -15 0
-21 43 -19 63 3 38 42 8 102 -51 102 -34 0 -50 15 -26 24 9 3 42 6 75 6 l59 0
0 -85 c0 -69 3 -85 15 -85 12 0 15 16 15 81 0 72 2 81 20 86 23 6 27 23 5 23
-8 0 -23 17 -34 39 -11 21 -27 41 -36 45 -29 11 -63 6 -80 -10z m79 -36 c20
-28 12 -38 -22 -29 -34 9 -45 51 -13 51 11 0 27 -10 35 -22z m-465 -47 l35
-19 -53 -11 c-66 -14 -84 -14 -99 1 -7 7 -8 17 -1 30 13 24 72 23 118 -1z
m305 -87 c9 -22 -13 -46 -38 -42 -24 4 -34 37 -14 49 21 14 45 10 52 -7z
m-600 -97 c9 -23 16 -48 16 -54 0 -15 -48 -53 -66 -53 -25 0 -15 30 13 41 20
7 24 12 14 22 -8 8 -19 8 -41 0 -18 -7 -30 -7 -30 -2 0 6 13 15 30 20 25 9 28
14 19 30 -5 11 -7 24 -4 29 13 21 33 8 49 -33z m-299 -126 c19 -44 14 -61 -18
-61 -15 0 -28 11 -41 35 -11 19 -17 37 -15 39 8 7 44 25 50 26 3 0 14 -18 24
-39z"/>
<path d="M3044 4695 c-4 -9 -2 -21 4 -27 15 -15 44 -1 40 19 -4 23 -36 29 -44
8z"/>
<path d="M2826 4654 c-5 -13 14 -24 43 -24 25 0 55 -36 47 -56 -5 -13 -15 -15
-46 -11 -30 4 -40 2 -40 -9 0 -8 5 -14 10 -14 6 0 10 -13 10 -29 0 -20 8 -35
22 -45 29 -21 78 -21 78 -1 0 9 -9 15 -23 15 -23 0 -47 17 -47 32 0 18 53 29
83 17 27 -11 29 -15 23 -50 -4 -23 -2 -40 5 -45 16 -10 25 9 38 87 7 38 16 71
20 74 13 8 103 -31 113 -49 21 -38 -17 -60 -63 -36 -23 13 -24 7 -8 -56 9 -33
18 -48 36 -55 36 -13 63 -11 63 6 0 9 -9 15 -25 15 -30 0 -55 37 -30 45 8 3
21 7 29 9 25 8 66 -17 66 -41 0 -28 45 -63 80 -63 34 0 42 -8 30 -30 -7 -13
-6 -20 6 -24 9 -3 17 -6 18 -6 1 0 17 34 35 75 34 77 39 82 71 65 18 -10 17
-14 -20 -83 -22 -41 -37 -77 -33 -80 16 -17 32 -2 63 63 19 39 39 70 44 70 17
0 156 -80 156 -89 0 -20 -16 -18 -62 6 -41 21 -53 24 -73 15 -36 -17 -44 -61
-15 -84 27 -22 63 -23 80 -3 10 12 10 18 0 31 -12 13 -10 14 13 3 l27 -12 -25
-45 c-23 -41 -25 -62 -5 -62 4 0 27 31 50 68 37 59 46 68 66 64 54 -10 17 21
-103 87 -135 74 -236 116 -253 106 -5 -3 -18 3 -30 15 -22 22 -60 26 -78 8
-20 -20 -13 -29 21 -26 23 2 32 -1 32 -12 0 -16 -27 -17 -85 -3 -28 7 -36 14
-38 37 -3 26 -1 28 22 22 19 -5 26 -3 26 9 0 9 -20 20 -57 30 -32 9 -71 21
-88 26 -16 6 -85 21 -152 33 -94 17 -123 20 -127 10z m176 -73 c-3 -32 -6 -34
-31 -26 -14 4 -21 15 -21 31 0 22 4 25 28 22 22 -2 27 -7 24 -27z m395 -107
c2 -5 -6 -24 -17 -41 -16 -27 -26 -33 -52 -33 -38 0 -55 9 -60 30 -2 10 6 13
34 11 30 -2 40 2 54 24 16 25 34 29 41 9z m191 -171 c-2 -10 -10 -18 -18 -18
-8 0 -16 8 -18 18 -2 12 3 17 18 17 15 0 20 -5 18 -17z"/>
<path d="M2320 4299 c-831 -93 -1495 -702 -1647 -1509 -21 -114 -29 -415 -13
-538 23 -185 92 -417 170 -573 467 -933 1613 -1307 2558 -836 434 216 777 610
926 1062 154 466 115 957 -110 1395 -208 404 -569 724 -999 885 -276 103 -604
146 -885 114z m535 -73 c44 -9 121 -28 171 -41 421 -114 799 -390 1038 -757
581 -892 243 -2075 -729 -2549 -720 -350 -1589 -195 -2140 383 -472 495 -616
1191 -378 1828 215 577 742 1014 1358 1129 157 29 159 29 390 26 144 -2 235
-8 290 -19z"/>
<path d="M2420 4130 c-17 -17 -20 -33 -20 -120 l0 -99 -34 -6 c-62 -12 -68 -7
-96 87 -14 51 -34 97 -48 110 l-22 23 -93 -24 c-50 -13 -100 -28 -109 -32 -28
-15 -29 -59 -4 -152 l23 -89 -41 -18 c-22 -9 -44 -16 -48 -13 -4 2 -26 35 -49
74 -42 71 -80 109 -107 109 -18 0 -174 -88 -184 -104 -17 -24 -6 -65 37 -140
25 -43 45 -81 45 -85 0 -8 -63 -51 -75 -51 -5 0 -41 32 -81 70 -96 93 -107 93
-202 -3 -48 -48 -72 -80 -72 -96 0 -16 25 -49 75 -101 l75 -77 -28 -36 -29
-35 -91 49 c-89 47 -124 57 -148 41 -23 -15 -104 -158 -104 -183 0 -33 32 -61
123 -109 37 -19 67 -40 67 -46 0 -6 -7 -27 -15 -47 l-14 -35 -93 24 c-157 40
-166 36 -204 -102 -21 -79 -22 -90 -9 -111 14 -21 95 -51 183 -69 41 -8 45
-16 37 -64 l-6 -38 -116 -4 c-148 -4 -153 -9 -153 -140 0 -81 2 -91 25 -113
23 -24 31 -25 135 -25 l110 0 2 -35 c0 -19 1 -40 2 -46 1 -7 -19 -18 -44 -25
-25 -6 -71 -19 -102 -28 -66 -19 -88 -37 -88 -74 0 -39 46 -184 62 -193 21
-14 68 -10 148 11 41 11 81 20 87 20 11 0 43 -59 43 -79 0 -4 -38 -28 -85 -54
-81 -46 -115 -76 -115 -105 0 -8 23 -52 51 -98 35 -58 58 -86 74 -90 18 -4 51
8 121 46 l97 51 28 -33 c15 -18 28 -35 29 -38 0 -3 -34 -39 -75 -80 -101 -100
-101 -114 -2 -204 96 -88 107 -87 203 5 l74 72 40 -28 40 -28 -32 -56 c-17
-31 -40 -69 -50 -86 -23 -38 -23 -78 0 -97 9 -9 51 -34 93 -57 105 -57 112
-54 199 86 l39 63 42 -18 c22 -10 41 -21 42 -25 0 -4 -10 -50 -23 -101 -31
-122 -25 -133 88 -164 141 -39 156 -31 193 101 23 85 24 87 54 87 74 0 75 -2
75 -109 0 -139 2 -141 139 -141 136 0 136 0 144 134 4 54 8 100 10 102 1 2 23
4 47 6 l43 3 28 -88 c29 -95 50 -127 82 -127 36 0 181 42 200 58 22 20 22 51
-3 140 -11 39 -20 77 -20 82 0 14 68 43 85 36 7 -2 27 -30 45 -61 46 -81 78
-115 106 -115 30 0 162 72 187 102 24 28 18 49 -39 145 l-46 77 34 28 c18 15
37 28 42 28 5 0 42 -31 82 -70 96 -94 111 -94 205 -3 93 89 93 101 -5 202
l-74 76 29 35 30 35 89 -47 c124 -67 139 -65 195 21 69 106 72 117 48 149 -16
22 -136 99 -177 115 -12 4 16 78 32 84 6 3 47 -4 90 -16 140 -38 163 -30 191
67 45 155 41 161 -104 201 l-100 27 3 34 c4 61 3 60 112 60 96 0 135 9 152 34
4 6 8 54 8 107 0 129 -4 132 -154 139 l-111 5 0 44 0 44 90 24 c97 26 130 43
139 70 3 10 -7 61 -22 113 -34 119 -41 122 -170 92 -50 -12 -97 -22 -105 -22
-15 0 -49 69 -41 82 2 3 42 27 89 53 124 67 128 82 57 200 -45 74 -51 80 -84
83 -29 2 -55 -7 -117 -42 -44 -25 -84 -46 -88 -46 -4 0 -20 15 -35 34 l-27 33
65 64 c73 71 98 111 89 139 -10 32 -145 150 -171 150 -15 0 -52 -25 -101 -70
-43 -38 -82 -70 -88 -70 -12 1 -65 46 -65 56 0 4 21 43 46 86 47 81 56 116 34
143 -20 24 -157 95 -185 95 -32 0 -53 -21 -105 -109 -23 -39 -44 -71 -46 -71
-17 0 -84 35 -84 44 0 6 9 45 20 86 24 93 25 123 3 142 -19 16 -164 58 -200
58 -32 0 -53 -33 -79 -121 -13 -46 -27 -86 -32 -90 -4 -3 -26 -4 -49 -2 l-41
5 -4 103 c-4 142 -8 145 -145 145 -90 0 -106 -3 -123 -20z m210 -160 l0 -120
32 0 c17 0 60 -5 95 -11 35 -6 66 -9 69 -6 3 2 18 50 33 106 16 56 32 105 35
108 3 4 40 -1 81 -11 88 -21 87 -18 50 -144 -13 -45 -21 -90 -18 -98 6 -15
143 -84 167 -84 6 0 36 43 66 95 30 52 61 95 69 95 8 0 43 -16 78 -35 l63 -36
-16 -31 c-9 -17 -34 -60 -55 -95 -26 -41 -38 -71 -34 -83 3 -11 35 -42 71 -70
l66 -52 31 28 c18 16 57 53 88 82 65 62 66 62 139 -12 l44 -46 -82 -83 c-45
-45 -82 -88 -82 -96 0 -7 19 -40 43 -72 32 -45 48 -58 68 -59 14 0 68 23 118
51 51 28 93 50 95 48 15 -20 76 -129 76 -136 0 -6 -43 -33 -95 -62 -54 -30
-97 -61 -100 -72 -9 -26 35 -138 60 -155 18 -12 33 -10 114 11 128 35 127 35
145 -29 30 -102 34 -96 -83 -127 -137 -37 -140 -40 -127 -127 16 -101 18 -102
152 -102 l114 0 0 -79 c0 -63 -3 -80 -16 -85 -9 -3 -62 -6 -119 -6 -76 0 -106
-4 -114 -14 -7 -8 -17 -45 -23 -81 -13 -86 -5 -94 119 -125 51 -13 98 -27 104
-31 8 -4 5 -28 -10 -79 -11 -40 -22 -74 -23 -76 -2 -2 -48 8 -102 22 -138 35
-144 34 -184 -50 -41 -86 -37 -93 81 -159 47 -26 88 -51 91 -55 3 -6 -60 -121
-76 -138 -3 -3 -50 19 -103 49 -60 34 -104 53 -117 50 -24 -7 -108 -109 -108
-132 0 -9 34 -50 75 -91 41 -41 75 -79 75 -84 0 -16 -93 -106 -109 -106 -9 0
-53 37 -98 82 l-82 82 -23 -21 c-13 -11 -48 -39 -80 -60 l-56 -39 60 -104 c58
-99 60 -104 42 -117 -36 -28 -116 -64 -129 -60 -6 3 -27 32 -45 64 -18 32 -43
75 -56 95 l-23 37 -88 -36 c-48 -20 -90 -37 -92 -39 -2 -2 8 -48 23 -102 14
-54 26 -106 26 -114 0 -23 -147 -58 -159 -39 -5 7 -19 52 -31 100 -13 47 -30
92 -39 98 -9 7 -31 11 -51 8 -19 -2 -58 -7 -87 -10 l-52 -7 -3 -116 -3 -117
-81 -3 c-96 -3 -94 -7 -94 129 0 103 -8 113 -95 124 -33 3 -69 9 -81 11 -19 5
-23 -5 -49 -101 -15 -59 -34 -109 -42 -112 -21 -8 -153 28 -153 41 0 7 13 59
29 117 16 57 29 104 28 105 -1 1 -38 16 -82 34 -44 18 -85 34 -92 37 -6 2 -36
-38 -67 -91 -31 -52 -60 -97 -65 -100 -12 -8 -141 65 -141 78 0 6 23 48 50 94
28 46 50 91 50 101 0 11 -30 43 -71 76 l-71 58 -82 -82 c-45 -44 -86 -81 -93
-81 -15 0 -113 89 -113 104 0 6 34 45 75 86 41 41 75 83 75 93 0 18 -63 114
-85 129 -21 15 -47 7 -134 -42 -49 -28 -93 -50 -97 -50 -5 0 -26 30 -47 66
-27 46 -35 69 -28 77 5 7 48 32 95 57 47 25 89 54 94 65 11 24 -34 142 -61
159 -12 8 -44 4 -124 -16 -59 -15 -110 -25 -114 -23 -10 7 -42 134 -36 147 2
7 48 24 102 38 135 33 139 37 125 125 -6 39 -17 76 -24 83 -12 12 -51 16 -203
21 l-43 1 0 80 0 80 114 0 c144 0 152 5 161 107 7 68 6 72 -17 86 -12 8 -63
25 -113 37 -49 13 -93 26 -97 29 -4 3 2 39 14 79 16 53 26 72 38 72 10 0 59
-11 110 -24 50 -13 100 -21 111 -19 30 8 83 131 70 160 -5 12 -49 43 -97 70
-47 26 -89 53 -91 60 -6 16 65 133 80 133 7 0 52 -23 102 -50 59 -34 97 -49
111 -46 26 7 104 106 104 132 0 10 -35 54 -77 96 l-77 78 54 55 c30 30 59 55
64 55 6 0 42 -31 81 -70 45 -45 79 -71 95 -72 21 -2 102 47 153 92 5 4 -19 52
-52 106 -32 54 -57 102 -55 106 10 16 127 79 139 75 6 -3 37 -48 69 -102 32
-53 61 -95 64 -93 4 2 46 18 93 36 l86 34 -29 110 c-16 61 -26 114 -21 118 12
11 145 42 152 35 3 -3 20 -54 37 -113 16 -59 35 -106 41 -105 6 1 42 5 79 8
125 11 114 -1 114 130 l0 115 85 0 85 0 0 -120z"/>
<path d="M2366 3689 c-423 -58 -784 -314 -970 -687 -46 -91 -89 -222 -107
-322 -19 -104 -16 -345 5 -440 78 -354 288 -644 597 -821 437 -252 997 -218
1399 85 300 225 472 551 487 922 14 341 -109 657 -352 899 -179 180 -409 302
-659 350 -100 20 -308 27 -400 14z m370 -64 c247 -44 472 -161 650 -340 164
-166 276 -380 320 -612 24 -130 15 -354 -19 -486 -114 -432 -472 -767 -917
-857 -130 -26 -344 -29 -466 -5 -499 95 -886 488 -959 973 -85 561 249 1100
795 1282 174 58 414 76 596 45z"/>
<path d="M2432 3233 c-50 -125 -107 -277 -128 -338 -35 -103 -37 -118 -37
-230 0 -102 4 -133 26 -208 15 -49 38 -110 52 -137 26 -52 32 -108 15 -141
-28 -52 -129 -63 -176 -18 -55 52 -64 189 -19 304 23 61 26 80 22 151 -8 142
-73 224 -198 254 -98 24 -236 -24 -305 -104 -19 -22 -34 -43 -34 -47 0 -3 21
-12 48 -19 57 -14 92 -44 92 -79 0 -14 -12 -62 -26 -106 -14 -44 -28 -116 -31
-161 -21 -304 157 -522 495 -605 l92 -22 0 -109 0 -108 175 0 174 0 3 106 3
106 112 28 c276 70 441 221 489 450 19 92 13 211 -16 295 -41 121 -18 176 78
190 29 4 52 10 52 14 0 20 -64 101 -98 124 -84 59 -216 75 -299 38 -90 -42
-164 -157 -165 -261 -1 -25 11 -83 25 -129 31 -94 36 -201 13 -255 -16 -39
-73 -86 -105 -86 -31 0 -98 36 -111 59 -16 31 -12 58 19 126 79 171 111 369
81 504 -11 48 -215 629 -225 639 -1 2 -44 -99 -93 -225z m146 -60 c62 -163 77
-216 97 -343 27 -176 12 -337 -46 -477 -54 -128 -32 -209 67 -254 89 -40 201
26 239 142 22 64 16 133 -18 224 -38 101 -37 185 2 247 54 85 180 130 275 98
36 -11 106 -64 106 -79 0 -3 -16 -15 -36 -26 -40 -21 -64 -60 -64 -103 0 -16
9 -64 20 -107 81 -319 -85 -591 -429 -704 -58 -19 -88 -21 -285 -21 -162 0
-236 4 -276 15 -213 57 -384 231 -435 443 -22 90 -16 211 14 297 21 60 26 109
15 140 -4 9 -27 31 -51 50 l-44 34 41 30 c48 35 136 56 194 47 106 -17 166
-90 174 -212 4 -65 2 -78 -21 -116 -78 -133 -52 -302 57 -375 40 -28 58 -33
105 -33 137 0 189 116 117 259 -40 80 -51 152 -50 326 1 128 5 175 22 235 23
88 142 400 151 400 4 0 30 -62 59 -137z m40 -1530 l3 -93 -116 0 -115 0 0 95
0 96 113 -3 112 -3 3 -92z"/>
<path d="M2492 2952 c-13 -48 -39 -122 -59 -166 -33 -75 -35 -83 -31 -165 4
-73 11 -100 45 -181 23 -54 48 -96 56 -98 19 -4 77 105 102 193 26 89 17 210
-22 301 -17 39 -37 98 -44 130 -6 33 -15 62 -18 66 -4 4 -17 -32 -29 -80z m56
-132 c24 -64 37 -124 28 -139 -4 -6 -17 -4 -36 6 -27 13 -33 13 -60 -1 -29
-14 -30 -14 -30 8 0 50 56 204 69 190 4 -5 17 -34 29 -64z m-8 -273 c16 6 32
7 35 3 9 -14 -5 -56 -38 -118 l-31 -56 -24 53 c-13 29 -26 70 -29 92 l-6 38
32 -12 c23 -8 38 -9 61 0z"/>
<path d="M1991 2652 c18 -29 4 -62 -56 -130 -31 -35 -62 -80 -70 -99 -34 -80
-9 -170 66 -238 54 -50 105 -73 128 -58 20 13 18 37 -9 133 -22 76 -23 141 -4
311 5 49 3 60 -15 78 -27 27 -56 29 -40 3z m2 -217 l-6 -90 -44 -1 -45 -1 7
36 c4 19 13 47 20 62 16 30 66 92 71 87 2 -2 0 -44 -3 -93z m30 -210 c15 -31
27 -60 27 -65 0 -17 -76 27 -104 60 -32 39 -33 52 -2 44 13 -3 27 -1 30 5 13
20 22 12 49 -44z"/>
<path d="M3010 2643 c-19 -25 -21 -34 -13 -78 4 -27 8 -104 8 -170 -1 -98 -5
-131 -23 -183 -18 -52 -20 -67 -10 -79 17 -21 60 -10 113 28 69 49 98 100 103
173 5 76 -11 112 -92 204 -58 65 -63 79 -46 113 17 30 -15 24 -40 -8z m120
-232 c5 -20 10 -47 10 -60 0 -20 -2 -21 -15 -11 -8 7 -26 10 -39 8 -22 -5 -24
-1 -30 59 -4 35 -9 78 -12 96 l-5 32 40 -44 c22 -24 45 -60 51 -80z m-65 -142
c4 -6 19 -7 38 -3 l30 6 -20 -33 c-18 -29 -111 -94 -121 -85 -5 6 51 126 59
126 4 0 11 -5 14 -11z"/>
<path d="M1070 4194 c-41 -31 -89 -69 -106 -86 -27 -25 -35 -28 -52 -19 -30
16 -88 13 -106 -5 -23 -22 -20 -60 6 -78 l22 -16 -32 -37 c-141 -166 -262
-329 -262 -352 0 -14 13 -14 27 0 8 8 18 6 36 -6 23 -14 24 -19 14 -36 -8 -14
-18 -18 -32 -13 -46 14 -69 9 -84 -19 -15 -27 -15 -29 8 -48 26 -21 41 -17 41
12 0 10 6 19 14 19 11 0 13 -9 9 -34 -4 -28 -1 -36 17 -46 55 -29 108 33 61
71 -18 15 -20 22 -11 39 13 25 11 25 53 0 30 -18 35 -19 41 -5 4 11 -14 28
-64 60 -39 25 -70 48 -70 52 0 5 7 16 15 27 13 17 17 16 81 -28 37 -26 73 -45
81 -42 20 8 10 21 -57 66 -32 22 -61 44 -64 48 -3 5 12 28 33 52 33 39 39 42
59 31 28 -15 28 -45 1 -64 -27 -19 -12 -29 52 -34 39 -3 51 0 68 18 21 23 28
49 13 49 -5 0 -17 -9 -27 -20 -10 -11 -26 -20 -37 -20 -14 0 -18 8 -18 39 0
31 -6 43 -26 58 l-26 19 57 63 c40 43 61 59 68 52 8 -8 3 -19 -16 -39 -32 -34
-36 -81 -8 -106 24 -22 96 -19 96 4 0 11 -9 14 -31 12 -55 -6 -71 53 -22 79
17 9 27 5 59 -21 67 -53 66 -23 0 44 l-62 62 21 19 c21 19 22 19 77 -38 30
-31 59 -57 63 -57 23 0 13 20 -37 78 l-57 65 39 33 c42 38 44 38 65 24 13 -9
11 -14 -13 -34 l-29 -23 27 -22 c38 -29 68 -26 108 9 30 26 36 28 47 15 10
-12 16 -13 26 -4 11 9 7 20 -24 58 -68 83 -66 79 -52 96 8 10 10 19 4 25 -5 5
-39 -13 -84 -46z m65 -48 c22 -29 24 -38 15 -55 -13 -26 -47 -44 -67 -37 -14
6 -14 8 1 24 21 24 21 58 -1 67 -17 6 -17 7 1 21 25 18 21 20 51 -20z m-235
-83 c-1 -16 -28 -43 -42 -43 -20 0 -42 26 -33 40 7 11 75 14 75 3z m-270 -599
c0 -17 -22 -14 -28 4 -2 7 3 12 12 12 9 0 16 -7 16 -16z"/>
<path d="M3926 4191 c-3 -5 12 -25 34 -45 22 -20 40 -40 40 -44 0 -5 -13 -21
-29 -36 -33 -32 -65 -31 -69 2 -4 29 23 40 47 18 17 -16 19 -16 25 0 16 41
-72 60 -98 22 -23 -32 -20 -55 9 -80 16 -14 23 -28 20 -39 -11 -35 18 -32 48
4 31 39 57 47 77 22 18 -22 -5 -47 -41 -43 -36 4 -39 -13 -6 -32 24 -13 28
-13 54 6 38 29 41 67 8 98 -17 16 -22 27 -15 31 7 4 33 -13 62 -41 l50 -49
-63 -57 c-48 -44 -61 -60 -52 -69 9 -9 27 1 76 44 l65 57 57 -66 c38 -43 54
-69 48 -75 -7 -7 -22 2 -46 26 -29 29 -43 36 -69 33 -25 -2 -35 -9 -42 -30 -8
-23 -6 -32 14 -53 27 -29 39 -31 66 -11 18 14 18 16 2 33 -11 10 -18 13 -18 5
0 -7 -7 -12 -15 -12 -8 0 -15 9 -15 20 0 11 6 20 13 20 13 0 67 -50 67 -63 0
-4 -17 -22 -37 -41 -28 -26 -35 -38 -27 -46 8 -8 28 3 77 45 l66 56 18 -27
c16 -25 16 -27 -3 -40 -63 -45 -81 -87 -49 -114 8 -7 15 -19 15 -27 0 -15 -12
-15 -52 2 -23 9 -24 -12 -2 -36 17 -19 13 -49 -6 -49 -16 0 -50 62 -50 93 0
17 -5 27 -15 27 -11 0 -15 -11 -15 -38 0 -56 42 -112 85 -112 25 0 55 29 55
52 0 8 31 36 69 61 l70 46 31 -56 c31 -55 31 -56 13 -75 -24 -23 -51 -15 -59
18 -7 28 -22 31 -31 7 -4 -9 -15 -25 -25 -35 -22 -22 -23 -40 -3 -78 10 -19
20 -27 30 -24 19 8 19 18 0 34 -18 15 -19 32 -4 47 8 8 19 6 40 -6 27 -15 31
-15 61 2 28 16 33 16 40 3 9 -16 39 -22 37 -8 -1 15 -107 185 -171 274 -88
122 -235 281 -352 379 -51 43 -96 79 -99 79 -3 0 -8 -4 -11 -9z m474 -523 c0
-3 -15 -16 -34 -27 -34 -21 -60 -20 -69 3 -6 16 0 26 38 54 l29 23 18 -23 c10
-13 18 -26 18 -30z"/>
<path d="M412 3267 c-14 -15 -22 -36 -22 -59 0 -79 101 -102 146 -34 48 75
-63 158 -124 93z"/>
<path d="M4492 3270 c-33 -31 -38 -67 -15 -98 40 -54 113 -48 141 11 35 73
-66 143 -126 87z"/>
<path d="M4686 2990 l-48 -51 -19 20 c-41 44 -119 15 -119 -44 0 -36 20 -136
29 -147 3 -4 62 6 131 21 110 25 125 30 122 47 -5 27 -6 27 -58 16 -27 -6 -52
-8 -56 -6 -19 12 -5 48 37 93 38 41 43 51 37 75 l-8 28 -48 -52z m-69 -109 c7
-25 11 -46 9 -49 -3 -2 -19 -5 -37 -5 -30 -2 -34 1 -42 36 -12 50 -4 69 30 65
23 -2 29 -10 40 -47z"/>
<path d="M310 3010 c0 -20 -3 -19 157 -59 101 -26 105 -26 101 0 -3 19 -19 26
-113 50 -132 34 -145 35 -145 9z"/>
<path d="M286 2924 c-9 -24 0 -29 82 -43 39 -7 72 -16 72 -20 0 -3 -40 -21
-89 -40 -73 -27 -90 -37 -94 -56 -4 -26 -4 -26 157 -55 87 -15 106 -13 106 9
0 16 -13 21 -80 32 -44 7 -80 16 -80 19 0 4 38 22 85 40 145 56 142 80 -12
104 -59 10 -115 19 -124 22 -10 3 -19 -3 -23 -12z"/>
<path d="M4625 2744 c-82 -7 -94 -11 -88 -35 6 -20 10 -21 105 -14 110 8 128
2 128 -46 0 -41 -31 -56 -132 -64 -84 -7 -88 -8 -88 -31 0 -27 -5 -27 119 -14
120 13 141 29 141 106 0 91 -34 109 -185 98z"/>
<path d="M248 2664 c-5 -4 -8 -39 -8 -79 0 -77 15 -106 67 -126 37 -14 110
-11 143 6 39 20 48 39 56 117 l6 65 -33 6 c-65 11 -224 19 -231 11z m167 -52
l50 -7 -3 -35 c-6 -57 -27 -73 -94 -68 -72 5 -88 19 -88 74 l0 44 43 -1 c23 0
65 -4 92 -7z"/>
<path d="M4581 2491 c-23 -23 -34 -69 -29 -131 l3 -45 133 -3 132 -3 0 26 c0
23 -3 25 -50 25 l-50 0 0 40 c0 23 -7 54 -15 69 -22 44 -91 55 -124 22z m77
-40 c8 -4 16 -27 19 -50 l6 -42 -44 3 c-43 3 -44 4 -42 36 2 51 29 74 61 53z"/>
<path d="M352 2412 c-121 -3 -123 -3 -120 -25 2 -17 9 -22 33 -21 17 1 76 2
133 3 93 1 102 3 102 20 0 25 -6 26 -148 23z"/>
<path d="M237 2306 c4 -17 14 -27 33 -31 25 -5 28 -12 34 -58 6 -43 4 -54 -9
-62 -40 -24 -47 -32 -43 -53 3 -21 8 -19 128 37 117 54 125 60 125 87 0 27 -3
29 -120 65 -146 46 -154 47 -148 15z m166 -67 c20 -5 37 -13 37 -17 0 -4 -19
-15 -42 -25 -46 -19 -58 -13 -58 31 0 25 9 26 63 11z"/>
<path d="M4546 2254 c-4 -9 -5 -18 -3 -20 1 -2 34 -6 72 -10 39 -4 76 -10 83
-13 8 -5 -22 -24 -78 -50 -74 -36 -90 -47 -90 -66 0 -25 11 -27 176 -41 76 -6
81 -5 86 14 5 17 -1 20 -40 26 -24 3 -60 6 -78 6 -58 0 -45 16 46 58 77 35 90
45 90 65 0 23 -5 25 -100 36 -135 15 -157 14 -164 -5z"/>
<path d="M393 2073 c-99 -21 -123 -29 -123 -43 0 -28 7 -28 90 -10 44 10 80
14 80 10 0 -5 -31 -37 -70 -71 -71 -64 -77 -73 -61 -98 8 -12 26 -11 118 8
144 30 143 30 143 52 0 22 -5 23 -90 4 -36 -8 -72 -14 -80 -14 -8 0 20 32 63
72 64 60 76 76 71 95 -3 12 -9 22 -13 21 -3 -1 -61 -12 -128 -26z"/>
<path d="M4623 1990 c-62 -10 -117 -21 -123 -25 -5 -3 -10 -16 -10 -28 0 -17
27 -39 110 -94 61 -40 114 -73 120 -73 11 0 14 50 3 50 -5 0 -16 7 -26 14 -15
12 -16 19 -6 64 11 45 16 52 43 58 32 7 46 19 46 42 0 15 -16 14 -157 -8z m33
-66 c-3 -9 -6 -22 -6 -30 0 -20 -17 -18 -56 7 -43 26 -35 39 23 39 37 0 44 -3
39 -16z"/>
<path d="M4450 1805 c-11 -27 -8 -36 25 -97 40 -74 37 -78 -34 -53 -41 14 -42
14 -50 -8 -8 -21 -1 -24 116 -66 68 -24 126 -42 128 -40 2 2 5 13 7 23 2 14
-6 22 -32 31 -33 11 -71 57 -58 70 3 3 36 11 73 17 57 10 68 15 76 36 5 14 8
27 5 29 -2 2 -43 -5 -91 -17 -49 -11 -89 -19 -90 -18 -2 2 -16 30 -33 63 l-30
60 -12 -30z"/>
<path d="M485 1730 c-100 -32 -119 -41 -117 -57 2 -10 6 -20 8 -22 2 -2 55 12
117 32 63 21 119 37 126 37 8 0 11 6 7 16 -3 9 -6 20 -6 25 0 13 -2 12 -135
-31z"/>
<path d="M518 1643 c-82 -35 -108 -50 -108 -64 0 -25 15 -24 88 6 34 14 66 25
72 25 6 0 -14 -34 -45 -75 -56 -76 -61 -89 -46 -113 6 -10 24 -7 82 17 166 66
171 69 159 90 -10 20 -12 19 -81 -10 -39 -17 -74 -29 -79 -27 -4 2 16 36 46
77 54 74 66 114 34 118 -8 1 -63 -19 -122 -44z"/>
<path d="M4321 1512 c-7 -14 -2 -29 20 -65 16 -26 29 -49 29 -51 0 -2 -28 -7
-62 -10 -57 -7 -77 -17 -78 -39 0 -4 39 -7 88 -6 73 1 95 -2 135 -22 41 -20
49 -21 57 -9 15 24 12 28 -37 54 -40 20 -55 36 -87 95 -22 39 -43 71 -48 71
-4 0 -12 -8 -17 -18z"/>
<path d="M676 1445 c-24 -25 -28 -53 -16 -106 14 -57 9 -79 -18 -79 -39 0 -69
69 -42 96 7 7 5 17 -5 30 -15 19 -15 19 -35 -5 -35 -41 -19 -107 36 -150 34
-27 64 -27 99 1 25 20 27 25 21 72 -3 28 -9 63 -12 78 -5 21 -2 29 11 35 27
10 58 -33 51 -69 -6 -30 1 -58 15 -58 5 0 16 11 25 25 15 24 15 28 -1 70 -9
25 -26 52 -38 60 -28 19 -71 19 -91 0z"/>
<path d="M831 1301 c-11 -7 -10 -14 8 -39 11 -17 21 -32 21 -35 0 -3 -38 -32
-85 -66 -47 -34 -85 -66 -85 -70 0 -5 6 -14 14 -20 10 -8 30 1 87 42 41 29 80
57 87 61 9 5 24 -2 43 -20 22 -21 32 -25 41 -16 12 12 11 14 -72 125 -38 50
-39 51 -59 38z"/>
<path d="M4176 1279 c-60 -47 -74 -127 -30 -179 35 -41 74 -60 123 -60 67 0
131 70 131 143 0 28 -6 37 -39 55 -21 12 -41 22 -45 22 -3 0 -18 -18 -32 -40
-22 -32 -25 -43 -15 -53 10 -9 17 -7 32 12 23 28 49 22 49 -13 0 -38 -10 -56
-42 -72 -23 -12 -36 -13 -63 -4 -38 13 -85 62 -85 89 0 29 39 71 65 71 21 0
35 17 35 41 0 17 -57 9 -84 -12z"/>
<path d="M898 1054 c-96 -78 -108 -93 -86 -112 10 -8 37 9 114 71 87 71 100
84 90 99 -6 10 -14 18 -18 18 -3 0 -48 -34 -100 -76z"/>
<path d="M3996 1069 c-34 -27 -56 -70 -56 -109 0 -23 11 -43 43 -77 38 -40 49
-46 95 -51 50 -4 53 -3 92 36 35 35 40 45 40 87 0 43 -4 52 -44 91 -40 40 -48
44 -93 44 -36 0 -58 -6 -77 -21z m115 -42 c18 -12 40 -35 49 -50 13 -24 13
-30 0 -54 -22 -39 -63 -57 -92 -42 -78 40 -102 109 -52 148 34 27 53 26 95 -2z"/>
<path d="M1032 1058 c-9 -9 -6 -18 15 -40 l27 -28 -77 -78 c-73 -74 -76 -78
-60 -95 17 -16 21 -13 95 60 l78 77 28 -27 c26 -25 30 -26 42 -12 12 14 4 25
-56 86 -37 38 -71 69 -74 69 -3 0 -11 -5 -18 -12z"/>
<path d="M1173 877 c-113 -123 -122 -175 -39 -226 40 -25 84 -27 112 -3 32 27
124 137 124 149 0 9 -21 23 -35 23 -1 0 -29 -31 -61 -70 -65 -78 -84 -89 -119
-66 -37 25 -31 57 23 123 80 98 76 90 54 102 -17 9 -26 4 -59 -32z"/>
<path d="M3762 857 c-8 -9 9 -36 69 -107 43 -52 83 -94 89 -92 6 1 40 25 76
53 52 41 62 54 53 65 -13 15 -18 13 -72 -29 -20 -16 -44 -27 -52 -23 -8 3 -40
37 -72 76 -58 71 -72 80 -91 57z"/>
<path d="M1380 775 c-10 -12 -7 -18 19 -32 17 -10 31 -23 31 -28 0 -6 -25 -48
-56 -93 -44 -67 -53 -86 -43 -98 6 -8 15 -14 20 -14 5 0 36 40 69 90 l60 90
35 -23 c19 -12 35 -25 35 -30 0 -4 -20 -48 -45 -98 l-46 -90 86 -39 c96 -45
101 -46 109 -25 4 11 -12 23 -59 44 -36 17 -65 35 -65 41 0 9 16 47 25 58 1 2
28 -9 60 -23 31 -13 61 -22 66 -19 22 13 5 33 -46 54 -57 23 -64 34 -42 65 13
17 16 17 72 -9 67 -30 71 -31 79 -11 4 12 -19 27 -97 64 -57 26 -128 64 -158
83 -90 57 -95 60 -109 43z"/>
<path d="M3630 772 c-79 -42 -89 -130 -24 -202 46 -50 89 -59 150 -30 71 35
93 100 55 170 -38 73 -112 98 -181 62z m98 -38 c28 -19 52 -65 52 -99 0 -59
-85 -88 -127 -42 -49 53 -55 96 -18 132 28 29 61 32 93 9z"/>
<path d="M3478 679 c-16 -9 -15 -16 18 -80 19 -39 33 -73 30 -76 -3 -3 -42 18
-86 47 -72 47 -83 52 -105 42 l-25 -12 57 -115 c32 -63 60 -115 63 -115 3 0
12 4 20 10 12 7 9 20 -20 79 -18 39 -32 73 -29 75 2 3 40 -18 82 -46 60 -38
84 -48 103 -44 13 4 24 11 24 16 0 10 -108 230 -113 230 -1 0 -10 -5 -19 -11z"/>
<path d="M3248 583 c-22 -5 -22 -11 -3 -57 9 -20 13 -41 10 -46 -3 -4 -25 -15
-50 -23 l-45 -16 -15 36 c-8 19 -15 39 -15 44 0 5 -11 9 -25 9 -14 0 -25 -5
-25 -12 0 -6 19 -62 42 -125 38 -100 45 -112 63 -107 11 4 21 8 23 9 2 1 -6
26 -17 54 l-19 51 32 14 c74 31 73 31 93 -24 11 -28 22 -51 26 -51 4 1 14 1
22 1 8 0 15 5 15 11 0 17 -84 239 -90 238 -3 -1 -13 -3 -22 -6z"/>
<path d="M1866 509 c-51 -40 -70 -123 -41 -179 31 -60 136 -81 190 -38 51 40
72 139 39 186 -37 53 -138 70 -188 31z m135 -40 c17 -17 20 -30 16 -66 -9 -83
-81 -121 -134 -71 -33 31 -27 95 14 140 22 25 78 23 104 -3z"/>
<path d="M2908 482 c-68 -41 -74 -148 -13 -209 29 -29 40 -33 83 -33 40 0 57
6 81 26 40 33 43 74 6 74 -18 0 -25 -5 -25 -20 0 -11 -12 -25 -27 -33 -41 -22
-78 -5 -97 44 -22 54 -20 82 7 107 27 26 54 28 83 7 19 -12 24 -12 40 0 18 15
18 16 -5 35 -29 25 -95 26 -133 2z"/>
<path d="M2120 433 c-7 -32 -18 -87 -25 -123 -10 -49 -11 -66 -2 -72 23 -15
35 -8 42 25 14 70 12 68 73 65 45 -2 57 0 60 13 2 12 -10 18 -50 25 -50 9 -53
11 -51 38 1 16 4 31 7 33 2 3 30 -1 62 -7 46 -10 58 -10 65 2 14 22 11 24 -58
37 -38 7 -78 15 -90 17 -19 5 -22 0 -33 -53z"/>
<path d="M2765 463 c-22 -1 -63 -5 -90 -8 l-50 -6 10 -122 10 -122 98 1 c54 1
100 4 103 6 2 3 2 12 -2 21 -4 13 -18 14 -80 10 l-74 -6 0 35 c0 42 11 48 81
48 43 0 49 2 49 21 0 21 -4 21 -70 17 l-70 -5 0 33 c0 34 0 34 48 34 66 0 92
9 92 31 0 11 -3 18 -7 17 -5 -1 -26 -3 -48 -5z"/>
<path d="M2407 454 c-17 -17 -4 -32 33 -38 l39 -6 3 -108 c3 -99 4 -107 23
-107 19 0 20 8 23 108 l3 107 39 0 c33 0 40 3 40 20 0 18 -7 20 -84 20 -46 0
-91 2 -98 5 -8 3 -17 2 -21 -1z"/>
</g>
</svg>
